<?xml version="1.0" standalone="no"?>
<!DOCTYPE svg PUBLIC "-//W3C//DTD SVG 20010904//EN"
 "http://www.w3.org/TR/2001/REC-SVG-20010904/DTD/svg10.dtd">
<svg version="1.0" xmlns="http://www.w3.org/2000/svg"
 width="110.000000pt" height="110.000000pt" viewBox="0 0 110.000000 110.000000"
 preserveAspectRatio="xMidYMid meet">
<metadata>
Created by potrace 1.14, written by Peter Selinger 2001-2017
</metadata>
<g transform="translate(0.000000,110.000000) scale(0.100000,-0.100000)"
fill="#000000" stroke="none">
<path d="M393 842 c-11 -7 -252 -415 -319 -542 -19 -34 -17 -58 4 -63 22 -7
179 -4 184 3 3 3 18 30 35 60 17 30 70 122 117 204 47 82 86 160 86 174 0 13
-8 36 -18 50 -10 15 -27 44 -37 65 -24 46 -37 58 -52 49z m30 -131 c10 -17 14
-37 10 -48 -13 -34 -204 -357 -216 -365 -7 -4 -24 -8 -39 -8 -20 0 -28 5 -28
18 0 10 35 78 78 152 44 74 98 168 121 208 23 39 45 72 49 72 4 0 15 -13 25
-29z"/>
<path d="M655 768 c-22 -40 -39 -84 -38 -97 2 -23 214 -404 237 -426 16 -16
170 -16 191 -1 15 11 16 15 2 47 -9 19 -82 149 -164 289 -108 186 -154 256
-168 258 -16 2 -29 -14 -60 -70z m194 -242 c68 -118 120 -219 117 -225 -8 -13
-64 -11 -76 3 -21 26 -210 361 -210 374 0 15 29 62 39 62 4 0 63 -96 130 -214z"/>
<path d="M532 543 c-46 -67 -122 -202 -122 -217 0 -26 32 -32 153 -30 141 2
134 1 141 20 9 23 -121 254 -143 254 -5 0 -18 -12 -29 -27z m63 -129 c15 -25
24 -48 21 -51 -11 -11 -108 -10 -112 1 -6 16 45 108 56 101 4 -3 20 -26 35
-51z"/>
</g>
</svg>
